<?xml version="1.0" encoding="UTF-8"?>
<!--
  PLACEHOLDER LOGO for Smile Connection Dental Studio.
  Replace this file with the official logo:
    - Save the official artwork as /public/logo.png (or keep this filename)
    - If you use a different filename, update `logo` in lib/site.ts
  This stand-in mirrors the brand colours (#002570 navy, #37ca37 green).
-->
<svg xmlns="http://www.w3.org/2000/svg" viewBox="0 0 600 150" width="600" height="150" role="img" aria-label="Smile Connection Dental Studio">
  <g>
    <!-- Tooth mark -->
    <path d="M70 28c20 0 30 14 30 30 0 16-6 24-9 40-3 18-6 36-15 36-6 0-7-16-13-16s-7 16-13 16c-9 0-12-18-15-36-3-16-9-24-9-40 0-16 10-30 30-30 5 0 9 2 13 2s8-2 13-2z" fill="#1c8ec9"/>
    <!-- Green leaf swoosh -->
    <path d="M58 14c14-10 34-10 44 2-12 0-22 6-28 16-5-8-11-13-16-18z" fill="#37ca37"/>
    <path d="M40 30c2 26 14 44 26 78-18-26-30-44-34-66z" fill="#37ca37" opacity="0.9"/>
  </g>
  <g fill="#1c4fa0" font-family="Segoe UI, Arial, sans-serif">
    <text x="135" y="70" font-size="52" font-weight="700" letter-spacing="2">SMILE</text>
    <text x="135" y="112" font-size="34" font-weight="600" letter-spacing="1">CONNECTION</text>
  </g>
  <g>
    <rect x="135" y="122" width="320" height="22" fill="#37ca37"/>
    <text x="148" y="139" font-size="16" font-weight="700" letter-spacing="3" fill="#ffffff" font-family="Segoe UI, Arial, sans-serif">DENTAL STUDIO</text>
  </g>
</svg>
